<svg xmlns="http://www.w3.org/2000/svg" width="43" height="48" viewBox="0 0 43 48"><defs><linearGradient id="5t7la" x1="46.19" x2="0" y1="28.18" y2="28.18" gradientUnits="userSpaceOnUse"><stop offset="0" stop-color="#3996e0"/><stop offset="1" stop-color="#81b520"/></linearGradient></defs><g><g><path fill="url(#5t7la)" d="M10 38.428l8.527-4.45L23 43.13 14.686 48zm10-6.01l8.527-4.45L33 37.12l-8.314 4.87zm10-6.009l8.527-4.451L43 31.111l-8.314 4.87zM5 28.094l8.527-4.133 4.473 8.5-8.314 4.521zm10-7.01l8.527-4.134L28 25.449l-8.314 4.522zm10-6.01l8.527-4.134L38 19.44l-8.314 4.521zM0 17.756l7.871-3.812L12 21.784l-7.675 4.17zm11.447-8.555l8.527-1.944 2.26 8.575-8.415 2.338zm12.175-8.085L31.63 1l.392 8.119-7.984.492z"/></g></g></svg>